<svg width="36" height="24" viewBox="0 0 36 24" fill="none" xmlns="http://www.w3.org/2000/svg">
<path fill-rule="evenodd" clip-rule="evenodd" d="M15.67 12.0132L15.6732 12.7214C15.6974 15.5304 15.8668 18.0366 16.1588 19.6248C16.1588 19.6534 16.4774 21.2286 16.6802 21.7528C16.9988 22.5108 17.5748 23.154 18.297 23.5616C18.8752 23.8524 19.4816 24 20.1166 24C20.6156 23.9768 21.4388 23.7258 22.0262 23.5152L22.5144 23.328C25.7478 22.0436 31.9288 17.8468 34.296 15.2804L34.4706 15.101L35.2494 14.2604C35.7404 13.617 36 12.8306 36 11.9846C36 11.2268 35.7688 10.4688 35.3062 9.8564C35.1678 9.658 34.9446 9.4034 34.7462 9.1884L33.988 8.3948C31.379 5.75144 25.7304 2.04366 22.8024 0.81512C22.8024 0.7887 20.9828 0.02864 20.1166 0H20.001C18.6722 0 17.4308 0.75784 16.7958 1.98274C16.6224 2.3176 16.456 2.97356 16.3296 3.54966L16.102 4.63742C15.8424 6.38664 15.67 9.07 15.67 12.0132ZM3.0065 8.9634C1.34616 8.9634 0 10.3226 0 11.9992C0 13.6756 1.34616 15.035 3.0065 15.035L10.405 14.3806C11.7075 14.3806 12.7635 13.3166 12.7635 11.9992C12.7635 10.6838 11.7075 9.6176 10.405 9.6176L3.0065 8.9634Z" fill="black"/>
</svg>
