<svg width="36" height="24" viewBox="0 0 36 24" fill="none" xmlns="http://www.w3.org/2000/svg">
<path fill-rule="evenodd" clip-rule="evenodd" d="M20.33 12.0132L20.3268 12.7214C20.3026 15.5304 20.1332 18.0366 19.8412 19.6248C19.8412 19.6534 19.5226 21.2286 19.3198 21.7528C19.0012 22.5108 18.4252 23.154 17.703 23.5616C17.1248 23.8524 16.5184 24 15.8834 24C15.3844 23.9768 14.5612 23.7258 13.9738 23.5152L13.4856 23.328C10.2522 22.0436 4.0712 17.8468 1.704 15.2804L1.5294 15.101L0.750599 14.2604C0.259599 13.617 0 12.8306 0 11.9846C0 11.2268 0.231202 10.4688 0.693802 9.8564C0.832202 9.658 1.0554 9.4034 1.2538 9.1884L2.012 8.3948C4.621 5.75144 10.2696 2.04366 13.1976 0.81512C13.1976 0.7887 15.0172 0.02864 15.8834 0H15.999C17.3278 0 18.5692 0.75784 19.2042 1.98274C19.3776 2.3176 19.544 2.97356 19.6704 3.54966L19.898 4.63742C20.1576 6.38664 20.33 9.07 20.33 12.0132ZM32.9935 8.9634C34.6538 8.9634 36 10.3226 36 11.9992C36 13.6756 34.6538 15.035 32.9935 15.035L25.595 14.3806C24.2925 14.3806 23.2365 13.3166 23.2365 11.9992C23.2365 10.6838 24.2925 9.6176 25.595 9.6176L32.9935 8.9634Z" fill="black"/>
</svg>
